<svg width="24" height="24" viewBox="0 0 24 24" fill="none" xmlns="http://www.w3.org/2000/svg">
<path d="M11.8137 21.1192C5.96469 14.5267 5.42766 10.152 10.961 2.99016C11.1064 2.80199 11.3679 2.74144 11.5802 2.84861L14.7071 4.42728C14.933 4.54133 15.038 4.80618 14.9518 5.04407L13.7556 8.34285C13.6868 8.53261 13.5106 8.66238 13.309 8.67185L11.315 8.76546C11.1264 8.77432 10.958 8.88902 10.8839 9.06269C9.90017 11.3692 9.94184 12.708 11.17 14.816C11.2511 14.9553 11.3965 15.0442 11.5572 15.0567L13.6619 15.22C13.8408 15.2339 13.9985 15.3426 14.0752 15.5048L15.5937 18.716C15.7019 18.9448 15.6221 19.2183 15.4078 19.353L12.4523 21.2116C12.2467 21.3409 11.9749 21.3009 11.8137 21.1192Z" stroke="#000" stroke-width="1.4" stroke-linecap="round"/>
</svg>
